<svg xmlns="http://www.w3.org/2000/svg" xmlns:xlink="http://www.w3.org/1999/xlink" width="256" zoomAndPan="magnify" viewBox="0 0 192 191.999996" height="256" preserveAspectRatio="xMidYMid meet" version="1.0"><defs><clipPath id="a212dc7500"><path d="M 0 0 L 191.792969 0 L 191.792969 188.84375 L 0 188.84375 Z M 0 0 " clip-rule="nonzero"/></clipPath><clipPath id="acff8d0e3e"><path d="M 22.5 0 L 169.5 0 C 175.46875 0 181.191406 2.371094 185.410156 6.589844 C 189.628906 10.808594 192 16.53125 192 22.5 L 192 166.34375 C 192 178.769531 181.925781 188.84375 169.5 188.84375 L 22.5 188.84375 C 10.074219 188.84375 0 178.769531 0 166.34375 L 0 22.5 C 0 10.074219 10.074219 0 22.5 0 Z M 22.5 0 " clip-rule="nonzero"/></clipPath><linearGradient x1="0.00668335" gradientTransform="matrix(0.73767, 0, 0, 0.73767, -0.00492811, 0)" y1="128" x2="260.006668" gradientUnits="userSpaceOnUse" y2="128" id="3ad778c442"><stop stop-opacity="1" stop-color="rgb(71.398926%, 37.599182%, 36.499023%)" offset="0"/><stop stop-opacity="1" stop-color="rgb(71.322632%, 37.417603%, 36.314392%)" offset="0.015625"/><stop stop-opacity="1" stop-color="rgb(71.170044%, 37.057495%, 35.945129%)" offset="0.03125"/><stop stop-opacity="1" stop-color="rgb(71.01593%, 36.697388%, 35.577393%)" offset="0.046875"/><stop stop-opacity="1" stop-color="rgb(70.863342%, 36.335754%, 35.209656%)" offset="0.0625"/><stop stop-opacity="1" stop-color="rgb(70.710754%, 35.975647%, 34.840393%)" offset="0.078125"/><stop stop-opacity="1" stop-color="rgb(70.558167%, 35.61554%, 34.472656%)" offset="0.09375"/><stop stop-opacity="1" stop-color="rgb(70.404053%, 35.255432%, 34.103394%)" offset="0.109375"/><stop stop-opacity="1" stop-color="rgb(70.251465%, 34.893799%, 33.735657%)" offset="0.125"/><stop stop-opacity="1" stop-color="rgb(70.098877%, 34.533691%, 33.36792%)" offset="0.140625"/><stop stop-opacity="1" stop-color="rgb(69.946289%, 34.173584%, 32.998657%)" offset="0.15625"/><stop stop-opacity="1" stop-color="rgb(69.792175%, 33.811951%, 32.63092%)" offset="0.171875"/><stop stop-opacity="1" stop-color="rgb(69.639587%, 33.451843%, 32.261658%)" offset="0.1875"/><stop stop-opacity="1" stop-color="rgb(69.487%, 33.091736%, 31.893921%)" offset="0.203125"/><stop stop-opacity="1" stop-color="rgb(69.334412%, 32.731628%, 31.524658%)" offset="0.21875"/><stop stop-opacity="1" stop-color="rgb(69.180298%, 32.369995%, 31.156921%)" offset="0.234375"/><stop stop-opacity="1" stop-color="rgb(69.02771%, 32.009888%, 30.789185%)" offset="0.25"/><stop stop-opacity="1" stop-color="rgb(68.875122%, 31.64978%, 30.419922%)" offset="0.265625"/><stop stop-opacity="1" stop-color="rgb(68.722534%, 31.288147%, 30.052185%)" offset="0.28125"/><stop stop-opacity="1" stop-color="rgb(68.56842%, 30.92804%, 29.682922%)" offset="0.296875"/><stop stop-opacity="1" stop-color="rgb(68.415833%, 30.567932%, 29.315186%)" offset="0.3125"/><stop stop-opacity="1" stop-color="rgb(68.263245%, 30.207825%, 28.947449%)" offset="0.328125"/><stop stop-opacity="1" stop-color="rgb(68.110657%, 29.846191%, 28.578186%)" offset="0.34375"/><stop stop-opacity="1" stop-color="rgb(67.956543%, 29.486084%, 28.210449%)" offset="0.359375"/><stop stop-opacity="1" stop-color="rgb(67.803955%, 29.125977%, 27.841187%)" offset="0.375"/><stop stop-opacity="1" stop-color="rgb(67.651367%, 28.764343%, 27.47345%)" offset="0.390625"/><stop stop-opacity="1" stop-color="rgb(67.498779%, 28.404236%, 27.105713%)" offset="0.40625"/><stop stop-opacity="1" stop-color="rgb(67.344666%, 28.044128%, 26.73645%)" offset="0.421875"/><stop stop-opacity="1" stop-color="rgb(67.192078%, 27.684021%, 26.368713%)" offset="0.4375"/><stop stop-opacity="1" stop-color="rgb(67.03949%, 27.322388%, 25.999451%)" offset="0.453125"/><stop stop-opacity="1" stop-color="rgb(66.886902%, 26.96228%, 25.631714%)" offset="0.46875"/><stop stop-opacity="1" stop-color="rgb(66.732788%, 26.602173%, 25.263977%)" offset="0.484375"/><stop stop-opacity="1" stop-color="rgb(66.5802%, 26.24054%, 24.894714%)" offset="0.5"/><stop stop-opacity="1" stop-color="rgb(66.427612%, 25.880432%, 24.526978%)" offset="0.515625"/><stop stop-opacity="1" stop-color="rgb(66.275024%, 25.520325%, 24.157715%)" offset="0.53125"/><stop stop-opacity="1" stop-color="rgb(66.120911%, 25.158691%, 23.789978%)" offset="0.546875"/><stop stop-opacity="1" stop-color="rgb(65.968323%, 24.798584%, 23.422241%)" offset="0.5625"/><stop stop-opacity="1" stop-color="rgb(65.815735%, 24.438477%, 23.052979%)" offset="0.578125"/><stop stop-opacity="1" stop-color="rgb(65.663147%, 24.078369%, 22.685242%)" offset="0.59375"/><stop stop-opacity="1" stop-color="rgb(65.510559%, 23.716736%, 22.315979%)" offset="0.609375"/><stop stop-opacity="1" stop-color="rgb(65.356445%, 23.356628%, 21.948242%)" offset="0.625"/><stop stop-opacity="1" stop-color="rgb(65.203857%, 22.996521%, 21.580505%)" offset="0.640625"/><stop stop-opacity="1" stop-color="rgb(65.05127%, 22.634888%, 21.211243%)" offset="0.65625"/><stop stop-opacity="1" stop-color="rgb(64.898682%, 22.27478%, 20.843506%)" offset="0.671875"/><stop stop-opacity="1" stop-color="rgb(64.744568%, 21.914673%, 20.474243%)" offset="0.6875"/><stop stop-opacity="1" stop-color="rgb(64.59198%, 21.554565%, 20.106506%)" offset="0.703125"/><stop stop-opacity="1" stop-color="rgb(64.439392%, 21.192932%, 19.73877%)" offset="0.71875"/><stop stop-opacity="1" stop-color="rgb(64.286804%, 20.832825%, 19.369507%)" offset="0.734375"/><stop stop-opacity="1" stop-color="rgb(64.13269%, 20.472717%, 19.00177%)" offset="0.75"/><stop stop-opacity="1" stop-color="rgb(63.980103%, 20.111084%, 18.632507%)" offset="0.765625"/><stop stop-opacity="1" stop-color="rgb(63.827515%, 19.750977%, 18.264771%)" offset="0.78125"/><stop stop-opacity="1" stop-color="rgb(63.674927%, 19.390869%, 17.895508%)" offset="0.796875"/><stop stop-opacity="1" stop-color="rgb(63.520813%, 19.030762%, 17.527771%)" offset="0.8125"/><stop stop-opacity="1" stop-color="rgb(63.368225%, 18.669128%, 17.160034%)" offset="0.828125"/><stop stop-opacity="1" stop-color="rgb(63.215637%, 18.309021%, 16.790771%)" offset="0.84375"/><stop stop-opacity="1" stop-color="rgb(63.063049%, 17.948914%, 16.423035%)" offset="0.859375"/><stop stop-opacity="1" stop-color="rgb(62.908936%, 17.58728%, 16.053772%)" offset="0.875"/><stop stop-opacity="1" stop-color="rgb(62.756348%, 17.227173%, 15.686035%)" offset="0.890625"/><stop stop-opacity="1" stop-color="rgb(62.60376%, 16.867065%, 15.318298%)" offset="0.90625"/><stop stop-opacity="1" stop-color="rgb(62.451172%, 16.506958%, 14.949036%)" offset="0.921875"/><stop stop-opacity="1" stop-color="rgb(62.297058%, 16.145325%, 14.581299%)" offset="0.9375"/><stop stop-opacity="1" stop-color="rgb(62.14447%, 15.785217%, 14.212036%)" offset="0.953125"/><stop stop-opacity="1" stop-color="rgb(61.991882%, 15.42511%, 13.844299%)" offset="0.96875"/><stop stop-opacity="1" stop-color="rgb(61.839294%, 15.063477%, 13.476562%)" offset="0.984375"/><stop stop-opacity="1" stop-color="rgb(61.685181%, 14.703369%, 13.1073%)" offset="1"/></linearGradient><clipPath id="b4ee450981"><path d="M 76 33.339844 L 131 33.339844 L 131 63 L 76 63 Z M 76 33.339844 " clip-rule="nonzero"/></clipPath><clipPath id="03d1378ff4"><path d="M 46.96875 58 L 116 58 L 116 147 L 46.96875 147 Z M 46.96875 58 " clip-rule="nonzero"/></clipPath><clipPath id="f8cfdcce93"><path d="M 126 33.339844 L 145 33.339844 L 145 51 L 126 51 Z M 126 33.339844 " clip-rule="nonzero"/></clipPath></defs><g clip-path="url(#a212dc7500)"><g clip-path="url(#acff8d0e3e)"><path fill="url(#3ad778c442)" d="M 0 0 L 0 188.84375 L 191.792969 188.84375 L 191.792969 0 Z M 0 0 " fill-rule="nonzero"/></g></g><g clip-path="url(#b4ee450981)"><path fill="#ffffff" d="M 80.058594 60.566406 C 80.058594 61.636719 79.183594 62.515625 78.113281 62.515625 C 77.042969 62.515625 76.167969 61.636719 76.167969 60.566406 L 76.167969 35.289062 C 76.167969 34.21875 77.042969 33.339844 78.113281 33.339844 L 128.863281 33.339844 C 129.929688 33.339844 130.808594 34.21875 130.808594 35.289062 C 130.808594 36.359375 129.929688 37.234375 128.863281 37.234375 L 80.042969 37.234375 L 80.042969 60.566406 Z M 80.058594 60.566406 " fill-opacity="1" fill-rule="nonzero"/></g><g clip-path="url(#03d1378ff4)"><path fill="#ffffff" d="M 111.117188 74.101562 C 111.117188 73.03125 111.992188 72.152344 113.0625 72.152344 C 114.132812 72.152344 115.011719 73.03125 115.011719 74.101562 L 115.011719 144.191406 C 115.011719 145.261719 114.132812 146.136719 113.0625 146.136719 L 48.941406 146.136719 C 47.871094 146.136719 46.992188 145.261719 46.992188 144.191406 L 46.992188 60.566406 C 46.992188 59.496094 47.871094 58.621094 48.941406 58.621094 L 99.546875 58.621094 C 100.613281 58.621094 101.492188 59.496094 101.492188 60.566406 C 101.492188 61.636719 100.613281 62.515625 99.546875 62.515625 L 50.886719 62.515625 L 50.886719 142.261719 L 111.117188 142.261719 Z M 111.117188 74.101562 " fill-opacity="1" fill-rule="nonzero"/></g><path fill="#ffffff" d="M 113.015625 76.046875 L 99.515625 76.144531 C 98.445312 76.144531 97.566406 75.28125 97.566406 74.210938 L 97.566406 74.164062 L 97.597656 60.582031 C 97.597656 59.515625 98.460938 58.652344 99.53125 58.652344 C 100.074219 58.652344 100.550781 58.875 100.902344 59.226562 L 114.417969 72.757812 C 115.167969 73.511719 115.167969 74.753906 114.402344 75.503906 C 114.019531 75.886719 113.492188 76.078125 112.984375 76.0625 Z M 101.445312 72.25 L 108.417969 72.199219 L 101.460938 65.242188 Z M 101.445312 72.25 " fill-opacity="1" fill-rule="nonzero"/><path fill="#ffffff" d="M 131.832031 125.726562 C 131.640625 124.671875 132.339844 123.667969 133.394531 123.476562 C 134.449219 123.285156 135.453125 123.988281 135.644531 125.039062 C 136.96875 132.191406 136.265625 138.09375 134.175781 142.835938 C 132.375 146.921875 129.546875 150.128906 126.070312 152.507812 C 122.652344 154.851562 118.617188 156.382812 114.324219 157.183594 C 106.410156 158.648438 97.566406 157.566406 90.226562 154.324219 C 89.253906 153.894531 88.804688 152.746094 89.238281 151.773438 C 89.667969 150.796875 90.816406 150.351562 91.789062 150.78125 C 98.460938 153.71875 106.457031 154.707031 113.621094 153.382812 C 117.386719 152.679688 120.914062 151.339844 123.882812 149.3125 C 126.773438 147.335938 129.132812 144.671875 130.632812 141.285156 C 132.4375 137.21875 133.011719 132.078125 131.847656 125.757812 Z M 131.832031 125.726562 " fill-opacity="1" fill-rule="nonzero"/><path fill="#ffffff" d="M 143.816406 135.492188 C 144.453125 136.355469 144.292969 137.570312 143.433594 138.207031 C 142.570312 138.84375 141.359375 138.6875 140.71875 137.824219 L 133.808594 128.664062 L 127.058594 138.207031 C 126.4375 139.085938 125.222656 139.292969 124.363281 138.6875 C 123.484375 138.0625 123.277344 136.851562 123.882812 135.988281 L 132.148438 124.289062 C 132.261719 124.113281 132.40625 123.972656 132.582031 123.84375 C 133.441406 123.207031 134.65625 123.363281 135.292969 124.226562 L 143.816406 135.511719 Z M 143.816406 135.492188 " fill-opacity="1" fill-rule="nonzero"/><g clip-path="url(#f8cfdcce93)"><path fill="#ffffff" d="M 130.21875 33.933594 L 144.214844 47.480469 C 144.980469 48.230469 144.996094 49.460938 144.246094 50.226562 C 143.847656 50.640625 143.289062 50.832031 142.746094 50.816406 L 128.671875 50.847656 C 127.601562 50.847656 126.738281 49.988281 126.738281 48.917969 L 126.738281 48.871094 L 126.929688 35.335938 C 126.945312 34.265625 127.824219 33.40625 128.894531 33.421875 C 129.40625 33.421875 129.882812 33.644531 130.21875 33.980469 Z M 138.070312 46.9375 L 130.730469 39.835938 L 130.632812 46.953125 Z M 138.070312 46.9375 " fill-opacity="1" fill-rule="nonzero"/></g><path fill="#ffffff" d="M 140.351562 48.628906 C 140.351562 47.5625 141.230469 46.683594 142.300781 46.683594 C 143.367188 46.683594 144.246094 47.5625 144.246094 48.628906 L 144.246094 118.914062 C 144.246094 119.980469 143.367188 120.859375 142.300781 120.859375 L 113.078125 120.859375 C 112.007812 120.859375 111.132812 119.980469 111.132812 118.914062 C 111.132812 117.84375 112.007812 116.964844 113.078125 116.964844 L 140.367188 116.964844 L 140.367188 48.628906 Z M 140.351562 48.628906 " fill-opacity="1" fill-rule="nonzero"/><path fill="#ffffff" d="M 56.710938 87.792969 L 103.390625 87.792969 L 103.390625 91.6875 L 56.710938 91.6875 Z M 56.710938 87.792969 " fill-opacity="1" fill-rule="nonzero"/><path fill="#ffffff" d="M 56.710938 64.460938 L 80.042969 64.460938 C 81.113281 64.460938 81.992188 65.339844 81.992188 66.40625 L 81.992188 81.96875 C 81.992188 83.039062 81.113281 83.914062 80.042969 83.914062 L 56.710938 83.914062 C 55.644531 83.914062 54.765625 83.039062 54.765625 81.96875 L 54.765625 66.40625 C 54.765625 65.339844 55.644531 64.460938 56.710938 64.460938 Z M 78.097656 68.355469 L 58.644531 68.355469 L 58.644531 80.019531 L 78.097656 80.019531 Z M 78.097656 68.355469 " fill-opacity="1" fill-rule="nonzero"/><path fill="#ffffff" d="M 56.710938 95.582031 L 103.390625 95.582031 L 103.390625 99.476562 L 56.710938 99.476562 Z M 56.710938 95.582031 " fill-opacity="1" fill-rule="nonzero"/><path fill="#ffffff" d="M 56.710938 103.351562 L 103.390625 103.351562 L 103.390625 107.246094 L 56.710938 107.246094 Z M 56.710938 103.351562 " fill-opacity="1" fill-rule="nonzero"/><path fill="#ffffff" d="M 67.421875 113.085938 C 70.898438 113.085938 74.074219 114.507812 76.359375 116.789062 C 78.640625 119.070312 80.058594 122.246094 80.058594 125.726562 C 80.058594 129.207031 78.640625 132.367188 76.359375 134.664062 C 74.074219 136.945312 70.898438 138.367188 67.421875 138.367188 C 63.941406 138.367188 60.78125 136.945312 58.5 134.664062 L 58.484375 134.648438 C 56.203125 132.351562 54.78125 129.207031 54.78125 125.726562 C 54.78125 122.246094 56.203125 119.070312 58.484375 116.789062 C 60.78125 114.492188 63.941406 113.085938 67.421875 113.085938 Z M 73.613281 119.535156 C 72.03125 117.953125 69.847656 116.964844 67.421875 116.964844 C 64.996094 116.964844 62.808594 117.9375 61.230469 119.519531 L 61.230469 119.535156 C 59.648438 121.113281 58.660156 123.300781 58.660156 125.726562 C 58.660156 128.152344 59.632812 130.339844 61.210938 131.917969 L 61.230469 131.933594 C 62.808594 133.515625 64.996094 134.488281 67.421875 134.488281 C 69.832031 134.488281 72.015625 133.515625 73.613281 131.917969 L 73.628906 131.917969 C 75.207031 130.339844 76.183594 128.152344 76.183594 125.726562 C 76.183594 123.316406 75.207031 121.132812 73.613281 119.535156 Z M 73.613281 119.535156 " fill-opacity="1" fill-rule="nonzero"/><path fill="#ffffff" d="M 85.886719 115.019531 L 103.390625 115.019531 L 103.390625 118.914062 L 85.886719 118.914062 Z M 85.886719 115.019531 " fill-opacity="1" fill-rule="nonzero"/><path fill="#ffffff" d="M 85.886719 122.804688 L 103.390625 122.804688 L 103.390625 126.699219 L 85.886719 126.699219 Z M 85.886719 122.804688 " fill-opacity="1" fill-rule="nonzero"/><path fill="#ffffff" d="M 85.886719 130.578125 L 103.390625 130.578125 L 103.390625 134.472656 L 85.886719 134.472656 Z M 85.886719 130.578125 " fill-opacity="1" fill-rule="nonzero"/><path fill="#ffffff" d="M 83.953125 39.183594 L 107.285156 39.183594 C 108.355469 39.183594 109.234375 40.058594 109.234375 41.128906 L 109.234375 54.742188 C 109.234375 55.8125 108.355469 56.6875 107.285156 56.6875 L 83.953125 56.6875 C 82.886719 56.6875 82.007812 55.8125 82.007812 54.742188 L 82.007812 41.128906 C 82.007812 40.058594 82.886719 39.183594 83.953125 39.183594 Z M 105.339844 43.078125 L 85.886719 43.078125 L 85.886719 52.796875 L 105.339844 52.796875 Z M 105.339844 43.078125 " fill-opacity="1" fill-rule="nonzero"/><path fill="#ffffff" d="M 113.0625 78.074219 L 134.511719 78.074219 L 134.511719 81.96875 L 113.0625 81.96875 Z M 101.300781 60.566406 L 134.511719 60.566406 L 134.511719 64.460938 L 101.300781 64.460938 Z M 107.460938 66.40625 L 134.511719 66.40625 L 134.511719 70.300781 L 107.460938 70.300781 Z M 113.0625 72.25 L 134.511719 72.25 L 134.511719 76.144531 L 113.0625 76.144531 Z M 113.0625 72.25 " fill-opacity="1" fill-rule="nonzero"/><path fill="#ffffff" d="M 117.003906 89.738281 L 134.511719 89.738281 L 134.511719 93.632812 L 117.003906 93.632812 Z M 117.003906 89.738281 " fill-opacity="1" fill-rule="nonzero"/><path fill="#ffffff" d="M 117.003906 95.582031 L 134.511719 95.582031 L 134.511719 99.476562 L 117.003906 99.476562 Z M 117.003906 95.582031 " fill-opacity="1" fill-rule="nonzero"/><path fill="#ffffff" d="M 117.003906 101.40625 L 134.511719 101.40625 L 134.511719 105.300781 L 117.003906 105.300781 Z M 117.003906 101.40625 " fill-opacity="1" fill-rule="nonzero"/><path fill="#ffffff" d="M 117.003906 107.246094 L 134.511719 107.246094 L 134.511719 111.140625 L 117.003906 111.140625 Z M 117.003906 107.246094 " fill-opacity="1" fill-rule="nonzero"/></svg>